<svg xmlns="http://www.w3.org/2000/svg" xmlns:xlink="http://www.w3.org/1999/xlink" width="20" height="20" viewBox="0 0 20 20"><defs><path id="83o9a" d="M252 55.5a3.5 3.5 0 1 1 0-7 3.5 3.5 0 0 1 0 7zm7.43-2.52a7.8 7.8 0 0 0 0-1.96l2.1-1.65a.5.5 0 0 0 .13-.64l-2-3.46c-.12-.22-.4-.3-.61-.22l-2.5 1a7.3 7.3 0 0 0-1.68-.98l-.38-2.65a.49.49 0 0 0-.5-.42h-4a.49.49 0 0 0-.48.42l-.38 2.65c-.61.25-1.17.59-1.7.98l-2.48-1a.49.49 0 0 0-.61.22l-2 3.46a.5.5 0 0 0 .12.64l2.1 1.65a7.93 7.93 0 0 0 0 1.96l-2.1 1.65a.5.5 0 0 0-.12.64l2 3.46c.12.22.39.3.6.22l2.5-1c.52.4 1.08.73 1.69.98l.38 2.65c.03.24.24.42.49.42h4c.25 0 .46-.18.49-.42l.38-2.65a7.68 7.68 0 0 0 1.69-.98l2.49 1c.23.09.49 0 .6-.22l2-3.46a.5.5 0 0 0-.11-.64l-2.11-1.65z"/></defs><g><g transform="translate(-242 -42)"><use fill="#fff" xlink:href="#83o9a"/></g></g></svg>